# xmcd CD database file
#
# Track frame offsets:
#	187
#	17310
#	38915
#	55367
#	75487
#	91132
#	109732
#	131687
#	148950
#	170425
#	193742
#
# Disc length: 2855 seconds
#
# Revision: 0
# Processed by: cddbd v1.5.1PL0 Copyright (c) Steve Scherf et al.
# Submitted via: CDex 1.51
#
DISCID=8e0b250b
DTITLE=八木さおり - MERLIN
DYEAR=1988
DGENRE=JPop
TTITLE0=トライアングル
TTITLE1=サマンサの森で逢いましょう
TTITLE2=銀色のセレナーデ
TTITLE3=Ｈｅａｒｔ　Ｂｅａｔきかせて（Ｒｅ−Ｍｉｘ）
TTITLE4=流星少年
TTITLE5=瞬間の魔法
TTITLE6=ＳＡＹＯＮＡＲＡ（Ｒｅ−Ｍｉｘ）
TTITLE7=オリーブの天気予報
TTITLE8=心
TTITLE9=Ｌｅｇａｔｏ〜なめらかに〜
TTITLE10=ありがとうの微笑み
EXTD=YEAR: 1988
EXTT0=
EXTT1=
EXTT2=
EXTT3=
EXTT4=
EXTT5=
EXTT6=
EXTT7=
EXTT8=
EXTT9=
EXTT10=
PLAYORDER=
